<svg id="svg" version="1.1" xmlns="http://www.w3.org/2000/svg" xmlns:xlink="http://www.w3.org/1999/xlink" width="400" height="440" viewBox="0, 0, 400,440"><g id="svgg"><path id="path0" d="M155.000 166.693 C 148.992 167.290,143.600 181.135,143.600 195.965 C 143.600 197.812,144.974 198.800,147.543 198.800 C 148.187 198.800,149.497 199.156,150.456 199.591 C 154.367 201.366,155.318 200.904,158.978 195.454 C 162.058 190.867,163.923 188.999,167.600 186.818 C 169.250 185.840,171.670 184.324,172.979 183.451 C 176.026 181.417,178.421 180.518,181.632 180.203 C 187.041 179.672,190.400 178.554,190.400 177.283 C 190.400 173.106,176.715 167.626,164.200 166.791 C 158.543 166.413,157.890 166.406,155.000 166.693 M143.200 170.240 C 141.770 170.790,138.985 171.601,137.010 172.041 C 134.549 172.590,133.000 173.181,132.083 173.921 C 131.347 174.514,129.937 175.467,128.949 176.037 C 127.962 176.608,126.219 177.832,125.077 178.759 C 120.785 182.239,117.937 184.400,117.641 184.400 C 117.473 184.400,117.086 184.866,116.781 185.436 C 116.476 186.006,115.590 186.800,114.813 187.201 C 112.449 188.420,110.925 190.273,109.619 193.518 C 108.100 197.296,107.192 199.213,106.551 200.000 C 104.303 202.760,105.956 203.468,110.000 201.479 C 112.897 200.054,113.930 198.086,114.613 192.691 C 114.972 189.856,115.600 189.284,115.600 191.793 C 115.600 193.545,116.952 198.617,117.612 199.342 C 118.915 200.771,127.715 200.832,131.934 199.440 C 132.960 199.102,134.484 198.719,135.321 198.590 C 136.257 198.446,136.923 198.095,137.052 197.678 C 137.168 197.305,137.593 196.190,137.996 195.200 C 138.399 194.210,139.127 192.050,139.614 190.400 C 140.101 188.750,140.633 187.220,140.796 187.000 C 140.960 186.780,141.495 185.340,141.987 183.800 C 142.962 180.741,144.208 177.392,146.045 172.888 C 147.705 168.820,147.466 168.598,143.200 170.240 M191.200 174.738 C 191.200 174.924,191.560 175.402,192.000 175.800 C 192.536 176.285,192.800 177.032,192.800 178.062 C 192.800 179.474,192.890 179.600,193.900 179.595 C 196.073 179.584,196.666 179.231,196.493 178.052 C 196.249 176.390,191.200 173.229,191.200 174.738 M191.000 181.451 C 183.188 181.741,179.788 182.361,177.291 183.949 C 176.031 184.751,174.010 185.928,172.800 186.564 C 164.924 190.709,157.889 199.711,154.485 210.000 C 152.134 217.103,152.196 230.504,154.595 234.234 C 154.890 234.692,155.619 236.492,156.214 238.234 C 157.069 240.735,157.904 242.157,160.191 245.000 C 161.784 246.980,163.307 249.021,163.576 249.535 C 164.441 251.188,166.899 253.634,168.530 254.466 C 169.401 254.911,170.996 255.894,172.074 256.652 C 178.093 260.883,191.875 266.008,197.147 265.977 C 205.765 265.925,209.540 265.417,212.950 263.849 C 214.682 263.052,216.392 262.399,216.750 262.398 C 221.929 262.384,234.491 253.422,237.582 247.536 L 238.965 244.903 237.855 243.948 C 234.826 241.343,237.601 232.856,241.631 232.400 L 243.400 232.200 243.909 225.200 C 244.889 211.748,243.246 205.350,237.023 198.382 C 235.690 196.889,233.892 194.820,233.027 193.783 C 230.121 190.298,225.397 188.000,212.415 183.756 C 205.304 181.431,201.767 181.050,191.000 181.451 M88.341 203.147 C 88.762 203.420,88.782 203.686,88.429 204.345 C 86.886 207.229,88.452 216.942,91.147 221.200 C 91.763 222.173,92.182 222.653,96.047 226.812 C 99.287 230.298,100.919 229.224,101.140 223.459 C 101.217 221.446,101.141 219.937,100.970 220.104 C 100.799 220.271,100.231 220.005,99.707 219.513 C 98.976 218.826,98.817 218.779,99.021 219.309 C 99.874 221.534,95.892 218.008,94.553 215.353 C 94.122 214.499,93.309 213.080,92.747 212.200 C 91.446 210.165,90.443 207.113,90.306 204.779 C 90.206 203.067,90.128 202.953,89.000 202.877 C 88.187 202.822,87.975 202.909,88.341 203.147 M105.622 204.778 C 105.195 205.205,104.747 206.150,104.627 206.878 C 104.507 207.605,103.958 210.858,103.406 214.107 C 102.482 219.552,102.441 220.309,102.882 223.801 L 103.360 227.589 102.255 228.742 C 100.911 230.146,101.298 230.400,104.782 230.400 C 107.487 230.400,108.583 231.343,112.326 236.890 C 115.067 240.952,116.603 241.944,118.397 240.811 C 118.872 240.510,118.892 240.332,118.497 239.937 C 118.223 239.663,118.000 238.585,118.000 237.540 C 118.000 236.495,117.810 234.754,117.578 233.672 C 117.287 232.316,117.273 228.113,117.533 220.152 C 117.740 213.798,117.767 208.420,117.593 208.200 C 117.419 207.980,117.214 207.351,117.138 206.802 C 117.009 205.870,116.708 205.746,112.600 204.936 C 107.042 203.841,106.570 203.830,105.622 204.778 M125.415 205.074 C 121.331 207.391,120.386 210.255,120.623 219.600 C 120.709 223.010,120.775 226.835,120.769 228.100 C 120.745 233.183,122.979 238.618,125.572 239.788 L 127.158 240.503 130.279 237.644 C 134.187 234.065,135.103 233.758,140.123 234.350 C 142.220 234.598,145.077 234.800,146.471 234.800 C 147.865 234.800,149.622 234.977,150.376 235.193 C 152.155 235.703,152.163 235.685,151.382 232.996 C 150.244 229.082,150.322 213.925,151.500 210.008 C 153.299 204.026,154.196 204.453,139.261 204.172 L 127.400 203.948 125.415 205.074 M98.329 224.933 C 98.406 225.328,98.202 225.600,97.829 225.600 C 97.458 225.600,97.200 225.258,97.200 224.767 C 97.200 223.792,98.135 223.930,98.329 224.933 M93.714 229.500 C 92.741 230.489,93.023 230.710,94.179 229.865 C 94.581 229.571,94.840 229.166,94.755 228.965 C 94.670 228.764,94.201 229.005,93.714 229.500 M87.800 231.685 C 87.140 231.892,84.695 232.297,82.367 232.584 C 75.066 233.486,70.155 237.161,70.517 241.452 C 70.674 243.316,71.748 245.556,72.500 245.587 C 72.665 245.594,72.800 245.932,72.800 246.337 C 72.800 247.692,75.060 248.499,78.200 248.265 C 82.767 247.924,86.893 247.299,88.600 246.689 C 89.480 246.374,90.920 245.993,91.800 245.842 C 92.680 245.691,93.850 245.408,94.400 245.214 C 98.591 243.731,105.035 242.022,107.159 241.831 C 110.501 241.529,110.904 241.193,110.223 239.274 C 108.293 233.839,106.120 232.073,101.000 231.777 C 94.050 231.374,88.904 231.338,87.800 231.685 M140.394 237.243 C 131.592 238.460,126.900 245.605,129.735 253.474 C 130.819 256.480,131.200 257.872,131.203 258.828 C 131.212 262.131,134.159 270.104,136.810 274.000 C 144.711 285.609,161.223 277.581,160.223 262.618 C 158.975 243.935,152.443 235.576,140.394 237.243 M198.002 239.402 C 199.875 241.197,200.779 247.200,199.175 247.200 C 198.969 247.200,198.800 247.532,198.800 247.938 C 198.800 249.856,192.746 252.331,191.800 250.800 C 191.664 250.580,191.237 250.400,190.851 250.400 C 189.319 250.400,187.200 247.052,187.200 244.630 C 187.200 239.114,194.177 235.737,198.002 239.402 M242.266 243.067 C 241.874 243.587,241.292 244.891,240.974 245.964 C 240.159 248.707,237.184 252.972,234.098 255.822 C 231.764 257.977,231.504 258.365,231.748 259.335 C 232.492 262.300,242.084 264.263,247.563 262.571 C 248.247 262.360,248.442 262.408,248.239 262.737 C 247.803 263.443,248.309 263.294,249.721 262.300 C 251.294 261.193,251.541 259.230,250.644 254.991 C 249.818 251.089,249.485 250.342,247.293 247.483 C 246.234 246.101,245.136 244.410,244.851 243.724 C 244.184 242.114,243.178 241.858,242.266 243.067 M251.693 257.200 C 251.693 257.970,251.775 258.285,251.876 257.900 C 251.976 257.515,251.976 256.885,251.876 256.500 C 251.775 256.115,251.693 256.430,251.693 257.200 " stroke="none" fill="#42c123" fill-rule="evenodd"></path><path id="path1" d="M0.000 220.000 L 0.000 440.000 200.000 440.000 L 400.000 440.000 400.000 220.000 L 400.000 0.000 200.000 0.000 L 0.000 0.000 0.000 220.000 M161.611 164.522 C 170.163 164.624,172.734 165.008,177.400 166.884 C 178.500 167.326,180.210 167.838,181.200 168.022 C 186.700 169.041,193.067 171.838,194.800 173.996 C 194.910 174.133,195.630 174.500,196.400 174.811 C 197.170 175.122,198.250 175.775,198.800 176.262 C 201.460 178.615,202.760 179.200,205.332 179.200 C 206.896 179.200,208.868 179.551,210.614 180.141 C 219.369 183.097,221.025 183.700,222.727 184.552 C 223.757 185.069,225.320 185.724,226.200 186.009 C 229.595 187.109,233.395 189.746,235.195 192.253 C 235.896 193.229,237.675 195.327,239.149 196.917 C 245.253 203.500,247.262 212.608,245.699 226.600 C 245.453 228.800,245.213 232.881,245.164 235.669 L 245.076 240.737 246.385 242.125 C 247.574 243.386,248.400 244.595,250.169 247.663 C 251.193 249.438,252.847 255.661,252.926 258.035 C 253.083 262.773,250.584 264.381,241.818 265.180 C 236.050 265.706,233.815 265.199,229.292 262.343 C 227.861 261.439,227.221 261.586,223.600 263.644 C 220.951 265.150,218.595 266.072,216.400 266.463 C 215.190 266.678,213.030 267.102,211.600 267.404 C 208.795 267.997,199.838 268.594,195.566 268.472 C 192.068 268.373,180.800 264.955,180.800 263.994 C 180.800 263.809,179.767 263.271,178.505 262.799 C 177.243 262.326,176.028 261.799,175.805 261.626 C 175.582 261.454,174.774 261.194,174.010 261.048 C 172.043 260.674,167.832 258.075,164.791 255.357 L 162.200 253.042 162.060 255.021 C 161.984 256.109,162.152 259.058,162.434 261.574 C 163.991 275.456,153.852 285.156,142.319 280.815 C 138.838 279.505,132.010 272.263,131.998 269.866 C 131.996 269.610,131.734 268.900,131.415 268.288 C 130.719 266.953,129.657 263.089,128.204 256.600 C 127.613 253.960,126.678 250.540,126.126 249.000 C 125.575 247.460,125.025 245.840,124.904 245.400 C 124.323 243.283,122.004 242.951,112.201 243.580 C 105.647 244.001,105.192 244.088,99.601 245.982 C 96.410 247.063,92.900 248.141,91.800 248.377 C 90.700 248.613,88.810 249.083,87.600 249.421 C 86.390 249.759,84.230 250.111,82.800 250.203 C 81.370 250.295,78.919 250.486,77.353 250.627 C 64.897 251.751,63.938 234.357,76.327 232.016 C 77.577 231.780,79.860 231.315,81.400 230.983 C 82.940 230.651,85.474 230.224,87.031 230.036 C 92.308 229.396,93.519 228.137,91.353 225.543 C 85.346 218.354,83.785 201.814,89.062 201.280 C 91.638 201.020,92.386 201.711,92.349 204.320 C 92.310 207.097,92.879 208.354,96.868 214.300 C 99.560 218.313,100.388 219.108,100.412 217.700 C 100.477 213.868,101.710 205.554,102.632 202.739 C 106.951 189.541,107.523 188.675,116.365 181.963 C 118.427 180.397,121.086 178.325,122.272 177.358 C 123.459 176.392,125.098 175.260,125.915 174.843 C 126.732 174.426,127.741 173.708,128.159 173.246 C 129.361 171.917,132.042 170.536,134.000 170.238 C 136.539 169.852,140.043 168.715,144.000 166.993 C 149.247 164.709,151.311 164.033,152.411 164.237 C 152.966 164.340,157.106 164.468,161.611 164.522 M242.270 234.561 C 242.020 235.213,242.356 235.674,242.856 235.366 C 243.310 235.085,243.300 234.000,242.843 234.000 C 242.646 234.000,242.389 234.252,242.270 234.561 M238.009 239.467 C 237.988 240.583,238.543 241.198,239.543 241.168 C 240.150 241.150,240.345 241.045,240.000 240.920 C 239.670 240.801,239.089 240.320,238.709 239.852 C 238.329 239.383,238.014 239.210,238.009 239.467 " stroke="none" fill="#fbfbfb" fill-rule="evenodd"></path><path id="path2" d="M150.792 165.112 C 150.466 165.207,148.940 165.869,147.400 166.583 C 143.699 168.298,136.676 170.677,134.311 171.016 C 132.450 171.284,131.760 171.662,126.737 175.174 C 111.336 185.944,105.732 192.281,104.153 200.714 C 104.000 201.531,103.636 202.771,103.345 203.468 C 102.661 205.107,102.093 209.920,101.452 219.493 C 100.774 229.612,99.834 230.886,96.047 226.812 C 95.031 225.719,93.656 224.234,92.990 223.512 C 88.734 218.896,86.469 208.816,88.584 203.900 C 88.951 203.047,87.930 202.920,87.254 203.735 C 86.538 204.597,86.587 213.906,87.316 215.600 C 87.648 216.370,88.430 218.340,89.054 219.977 C 89.823 221.994,90.933 223.844,92.495 225.713 C 95.759 229.621,95.461 230.400,90.698 230.400 C 88.259 230.400,85.286 230.934,77.465 232.776 C 72.754 233.886,70.038 235.619,68.574 238.450 C 67.921 239.714,67.801 242.666,68.395 242.867 C 68.612 242.940,69.377 244.167,70.095 245.594 C 71.696 248.777,73.328 250.001,75.959 249.997 C 78.688 249.992,86.734 248.873,88.800 248.211 C 89.790 247.893,91.860 247.352,93.400 247.008 C 94.940 246.663,97.819 245.825,99.797 245.145 C 104.982 243.362,109.155 242.803,117.300 242.802 C 126.433 242.800,126.016 242.466,127.799 251.200 C 131.382 268.762,134.145 274.637,140.881 279.022 C 147.288 283.193,156.716 280.065,160.240 272.600 C 162.233 268.377,162.261 267.637,160.970 253.500 C 160.696 250.499,161.149 250.515,164.213 253.618 C 167.839 257.292,171.970 259.641,179.343 262.222 C 180.852 262.750,182.912 263.729,183.921 264.397 C 190.028 268.442,202.617 268.884,217.185 265.564 C 218.167 265.340,220.507 264.282,222.385 263.212 C 227.141 260.503,227.953 260.392,230.528 262.093 C 234.389 264.644,242.734 265.411,246.760 263.584 C 248.844 262.638,248.715 262.164,246.538 262.769 C 241.337 264.213,232.452 262.140,231.743 259.317 C 231.506 258.370,231.780 257.962,234.098 255.822 C 237.193 252.964,240.159 248.706,240.980 245.943 C 242.087 242.214,243.813 241.216,244.845 243.707 C 245.132 244.403,246.241 246.110,247.307 247.502 C 249.973 250.980,251.644 256.505,251.027 259.798 C 250.746 261.292,251.354 261.784,251.725 260.364 C 252.706 256.614,249.128 245.803,245.692 242.133 C 244.526 240.888,244.265 232.674,245.235 227.739 C 247.290 217.286,244.427 203.192,239.234 198.200 C 238.318 197.320,236.605 195.323,235.427 193.762 C 233.065 190.631,229.795 188.180,226.176 186.825 C 224.959 186.370,223.254 185.636,222.388 185.194 C 217.055 182.473,208.937 180.000,205.340 180.000 C 202.459 180.000,201.655 179.866,201.136 179.300 C 199.561 177.583,196.797 175.200,196.380 175.200 C 196.129 175.200,195.441 174.856,194.850 174.436 C 191.433 172.002,187.053 170.199,182.075 169.174 C 180.002 168.748,177.653 168.050,176.854 167.623 C 173.134 165.637,154.973 163.888,150.792 165.112 M164.200 166.791 C 176.715 167.626,190.400 173.106,190.400 177.283 C 190.400 178.554,187.041 179.672,181.632 180.203 C 178.421 180.518,176.026 181.417,172.979 183.451 C 171.670 184.324,169.250 185.840,167.600 186.818 C 163.923 188.999,162.058 190.867,158.978 195.454 C 155.318 200.904,154.367 201.366,150.456 199.591 C 149.497 199.156,148.187 198.800,147.543 198.800 C 144.974 198.800,143.600 197.812,143.600 195.965 C 143.600 181.135,148.992 167.290,155.000 166.693 C 157.890 166.406,158.543 166.413,164.200 166.791 M146.993 169.588 C 147.125 169.802,146.698 171.287,146.045 172.888 C 144.208 177.392,142.962 180.741,141.987 183.800 C 141.495 185.340,140.960 186.780,140.796 187.000 C 140.633 187.220,140.101 188.750,139.614 190.400 C 139.127 192.050,138.399 194.210,137.996 195.200 C 137.593 196.190,137.168 197.305,137.052 197.678 C 136.923 198.095,136.257 198.446,135.321 198.590 C 134.484 198.719,132.960 199.102,131.934 199.440 C 127.715 200.832,118.915 200.771,117.612 199.342 C 116.952 198.617,115.600 193.545,115.600 191.793 C 115.600 189.284,114.972 189.856,114.613 192.691 C 113.930 198.086,112.897 200.054,110.000 201.479 C 105.956 203.468,104.303 202.760,106.551 200.000 C 107.192 199.213,108.100 197.296,109.619 193.518 C 110.925 190.273,112.449 188.420,114.813 187.201 C 115.590 186.800,116.476 186.006,116.781 185.436 C 117.086 184.866,117.473 184.400,117.641 184.400 C 117.937 184.400,120.785 182.239,125.077 178.759 C 126.219 177.832,127.962 176.608,128.949 176.037 C 129.937 175.467,131.347 174.514,132.083 173.921 C 133.000 173.181,134.549 172.590,137.010 172.041 C 138.985 171.601,141.770 170.790,143.200 170.240 C 146.108 169.120,146.646 169.028,146.993 169.588 M194.458 175.679 C 197.552 177.791,197.298 179.578,193.900 179.595 C 192.890 179.600,192.800 179.474,192.800 178.062 C 192.800 177.032,192.536 176.285,192.000 175.800 C 190.012 174.001,191.865 173.910,194.458 175.679 M212.415 183.756 C 225.397 188.000,230.121 190.298,233.027 193.783 C 233.892 194.820,235.690 196.889,237.023 198.382 C 243.246 205.350,244.889 211.748,243.909 225.200 L 243.400 232.200 241.631 232.400 C 237.601 232.856,234.826 241.343,237.855 243.948 L 238.965 244.903 237.582 247.536 C 234.491 253.422,221.929 262.384,216.750 262.398 C 216.392 262.399,214.682 263.052,212.950 263.849 C 209.540 265.417,205.765 265.925,197.147 265.977 C 191.875 266.008,178.093 260.883,172.074 256.652 C 170.996 255.894,169.401 254.911,168.530 254.466 C 166.899 253.634,164.441 251.188,163.576 249.535 C 163.307 249.021,161.784 246.980,160.191 245.000 C 157.904 242.157,157.069 240.735,156.214 238.234 C 155.619 236.492,154.890 234.692,154.595 234.234 C 152.196 230.504,152.134 217.103,154.485 210.000 C 157.889 199.711,164.924 190.709,172.800 186.564 C 174.010 185.928,176.031 184.751,177.291 183.949 C 182.905 180.378,201.765 180.274,212.415 183.756 M90.231 204.900 C 90.595 207.478,91.609 210.419,92.747 212.200 C 93.309 213.080,94.122 214.499,94.553 215.353 C 95.421 217.075,98.111 220.000,98.827 220.000 C 99.499 220.000,99.156 219.345,96.278 215.129 C 93.099 210.473,92.292 208.915,91.393 205.700 C 90.598 202.853,89.871 202.353,90.231 204.900 M112.600 204.936 C 116.708 205.746,117.009 205.870,117.138 206.802 C 117.214 207.351,117.419 207.980,117.593 208.200 C 117.767 208.420,117.740 213.798,117.533 220.152 C 117.273 228.113,117.287 232.316,117.578 233.672 C 117.810 234.754,118.000 236.495,118.000 237.540 C 118.000 238.585,118.223 239.663,118.497 239.937 C 118.892 240.332,118.872 240.510,118.397 240.811 C 116.603 241.944,115.067 240.952,112.326 236.890 C 108.583 231.343,107.487 230.400,104.782 230.400 C 101.298 230.400,100.911 230.146,102.255 228.742 L 103.360 227.589 102.882 223.801 C 102.441 220.309,102.482 219.552,103.406 214.107 C 103.958 210.858,104.507 207.605,104.627 206.878 C 105.122 203.869,106.045 203.644,112.600 204.936 M151.761 204.641 C 152.638 204.977,152.566 206.464,151.500 210.008 C 150.322 213.925,150.244 229.082,151.382 232.996 C 152.163 235.685,152.155 235.703,150.376 235.193 C 149.622 234.977,147.865 234.800,146.471 234.800 C 145.077 234.800,142.220 234.598,140.123 234.350 C 135.103 233.758,134.187 234.065,130.279 237.644 L 127.158 240.503 125.572 239.788 C 122.979 238.618,120.745 233.183,120.769 228.100 C 120.775 226.835,120.709 223.010,120.623 219.600 C 120.386 210.255,121.331 207.391,125.415 205.074 L 127.400 203.948 139.261 204.172 C 145.785 204.295,151.410 204.506,151.761 204.641 M97.200 224.767 C 97.200 225.258,97.458 225.600,97.829 225.600 C 98.202 225.600,98.406 225.328,98.329 224.933 C 98.135 223.930,97.200 223.792,97.200 224.767 M101.000 231.777 C 106.120 232.073,108.293 233.839,110.223 239.274 C 110.904 241.193,110.501 241.529,107.159 241.831 C 105.035 242.022,98.591 243.731,94.400 245.214 C 93.850 245.408,92.680 245.691,91.800 245.842 C 90.920 245.993,89.480 246.374,88.600 246.689 C 86.893 247.299,82.767 247.924,78.200 248.265 C 75.060 248.499,72.800 247.692,72.800 246.337 C 72.800 245.932,72.665 245.594,72.500 245.587 C 71.748 245.556,70.674 243.316,70.517 241.452 C 70.155 237.161,75.066 233.486,82.367 232.584 C 84.695 232.297,87.140 231.892,87.800 231.685 C 88.904 231.338,94.050 231.374,101.000 231.777 M243.771 234.535 C 244.097 235.057,244.055 235.315,243.600 235.605 C 242.215 236.488,241.004 235.401,242.015 234.182 C 242.608 233.467,243.177 233.581,243.771 234.535 M148.947 237.883 C 154.925 239.764,159.344 249.457,160.223 262.618 C 161.223 277.581,144.711 285.609,136.810 274.000 C 134.159 270.104,131.212 262.131,131.203 258.828 C 131.200 257.872,130.819 256.480,129.735 253.474 C 125.864 242.730,136.617 234.004,148.947 237.883 M191.200 238.260 C 189.149 239.079,187.200 242.183,187.200 244.630 C 187.200 247.052,189.319 250.400,190.851 250.400 C 191.237 250.400,191.664 250.580,191.800 250.800 C 192.746 252.331,198.800 249.856,198.800 247.938 C 198.800 247.532,198.969 247.200,199.175 247.200 C 199.802 247.200,200.137 243.636,199.660 242.044 C 198.737 238.960,194.356 237.001,191.200 238.260 M239.293 239.600 C 239.568 240.040,240.109 240.400,240.496 240.400 C 240.883 240.400,241.200 240.670,241.200 241.000 C 241.200 241.945,238.535 241.799,238.014 240.826 C 237.052 239.028,238.230 237.898,239.293 239.600 M197.600 240.600 C 197.997 241.079,197.997 241.321,197.600 241.800 C 196.600 243.004,195.176 242.083,195.745 240.600 C 195.871 240.270,196.229 240.000,196.538 240.000 C 196.848 240.000,197.326 240.270,197.600 240.600 M190.870 246.004 C 191.529 247.572,191.577 247.600,193.600 247.600 C 195.340 247.600,195.638 247.708,195.525 248.295 C 195.056 250.730,188.800 248.587,188.800 245.991 C 188.800 243.832,189.961 243.840,190.870 246.004 " stroke="none" fill="#0c230b" fill-rule="evenodd"></path><path id="path3" d="M149.400 165.192 C 148.300 165.612,145.374 166.787,142.898 167.804 C 140.422 168.820,137.002 169.933,135.298 170.277 C 131.952 170.951,130.681 171.478,129.336 172.748 C 128.861 173.196,127.421 174.226,126.136 175.036 C 124.851 175.847,122.540 177.524,121.000 178.764 C 119.460 180.004,117.480 181.541,116.600 182.180 C 111.053 186.205,107.272 190.436,106.114 193.915 C 105.769 194.952,105.343 195.986,105.167 196.213 C 104.991 196.439,104.402 198.149,103.859 200.013 C 103.315 201.876,102.668 203.925,102.420 204.566 C 102.172 205.207,101.689 208.717,101.346 212.366 C 101.003 216.015,100.632 219.090,100.521 219.200 C 100.153 219.566,97.421 216.160,95.354 212.759 C 92.473 208.016,92.393 207.837,91.848 204.868 L 91.357 202.200 89.839 202.074 C 88.348 201.949,86.800 202.790,86.800 203.724 C 86.800 203.944,87.139 203.817,87.553 203.442 C 88.037 203.005,88.718 202.827,89.453 202.947 C 90.084 203.050,90.735 203.149,90.900 203.167 C 91.065 203.185,91.200 203.566,91.200 204.013 C 91.200 207.495,99.532 221.434,100.832 220.126 C 101.010 219.947,101.443 216.923,101.794 213.406 C 102.145 209.890,102.537 206.560,102.666 206.006 C 103.797 201.139,105.838 195.417,107.926 191.257 C 109.132 188.855,111.822 186.446,121.852 178.785 C 125.517 175.985,126.579 175.226,130.878 172.329 C 131.752 171.741,133.217 171.143,134.134 171.001 C 136.593 170.621,141.758 168.929,145.400 167.311 C 147.160 166.529,149.590 165.563,150.800 165.166 C 152.010 164.768,152.640 164.440,152.200 164.436 C 151.760 164.432,150.500 164.772,149.400 165.192 M153.700 165.076 C 154.085 165.176,154.715 165.176,155.100 165.076 C 155.485 164.975,155.170 164.893,154.400 164.893 C 153.630 164.893,153.315 164.975,153.700 165.076 M161.000 165.001 C 161.220 165.076,163.650 165.208,166.400 165.295 C 169.150 165.381,170.860 165.326,170.200 165.173 C 169.017 164.899,160.223 164.734,161.000 165.001 M173.400 166.262 C 174.500 166.580,176.030 167.173,176.800 167.579 C 177.570 167.985,179.582 168.599,181.272 168.944 C 182.962 169.289,184.852 169.679,185.472 169.811 C 186.273 169.981,186.426 169.940,186.000 169.669 C 185.670 169.459,184.003 169.001,182.295 168.652 C 180.588 168.302,178.612 167.717,177.905 167.351 C 176.680 166.717,172.648 165.598,171.800 165.656 C 171.580 165.671,172.300 165.944,173.400 166.262 M189.394 171.360 C 190.931 172.121,192.254 172.679,192.334 172.599 C 192.530 172.403,188.853 170.571,187.600 170.239 C 187.050 170.094,187.857 170.598,189.394 171.360 M199.600 177.700 L 201.800 179.975 205.400 179.913 L 209.000 179.851 205.800 179.625 C 202.448 179.389,201.499 178.985,198.800 176.640 C 198.030 175.971,198.390 176.448,199.600 177.700 M209.646 180.180 C 209.781 180.314,210.489 180.596,211.219 180.805 C 211.949 181.015,212.378 181.032,212.173 180.845 C 211.748 180.456,209.271 179.804,209.646 180.180 M213.800 181.755 C 214.460 182.055,215.450 182.411,216.000 182.546 C 216.803 182.743,216.764 182.684,215.800 182.245 C 215.140 181.945,214.150 181.589,213.600 181.454 C 212.797 181.257,212.836 181.316,213.800 181.755 M218.000 183.249 C 220.791 184.549,225.166 186.407,226.459 186.841 C 229.006 187.697,233.312 190.876,234.800 192.999 C 235.570 194.098,237.016 195.808,238.014 196.799 C 241.459 200.218,244.313 205.677,245.021 210.200 C 245.193 211.300,245.406 211.891,245.493 211.514 C 246.072 209.032,242.431 200.813,239.266 197.454 C 237.994 196.104,236.206 194.041,235.293 192.869 C 232.782 189.645,229.391 187.282,225.436 186.002 C 224.576 185.723,222.855 184.991,221.612 184.375 C 220.370 183.758,218.824 183.148,218.176 183.019 C 217.016 182.787,217.014 182.790,218.000 183.249 M86.270 208.506 C 86.132 210.765,86.162 213.148,86.337 213.802 C 86.545 214.578,86.677 213.153,86.717 209.696 C 86.792 203.356,86.614 202.885,86.270 208.506 M246.124 217.000 C 246.126 218.320,246.201 218.812,246.290 218.093 C 246.379 217.374,246.377 216.294,246.286 215.693 C 246.195 215.092,246.122 215.680,246.124 217.000 M86.806 215.291 C 86.773 216.856,90.142 223.830,91.785 225.600 C 94.287 228.294,93.406 229.811,89.171 230.103 C 87.137 230.243,87.178 230.257,89.811 230.326 C 94.666 230.454,95.461 229.221,92.600 226.000 C 90.661 223.817,89.299 221.375,88.249 218.200 C 87.616 216.285,86.819 214.678,86.806 215.291 M244.798 234.081 C 244.689 237.096,244.741 239.421,244.912 239.249 C 245.084 239.076,245.174 236.610,245.111 233.768 L 244.997 228.600 244.798 234.081 M79.998 231.600 C 70.710 233.656,67.289 236.412,67.682 241.522 C 67.850 243.706,68.221 244.512,70.629 247.932 C 71.835 249.645,73.589 250.402,76.200 250.338 L 78.600 250.278 76.129 250.039 C 73.046 249.741,71.785 248.857,70.177 245.867 C 69.504 244.617,68.739 243.379,68.477 243.117 C 67.817 242.457,67.879 239.794,68.587 238.426 C 70.345 235.026,73.798 233.295,82.200 231.603 C 84.620 231.116,86.675 230.646,86.767 230.559 C 87.160 230.184,84.661 230.568,79.998 231.600 M242.004 234.195 C 241.417 234.902,241.742 236.000,242.538 236.000 C 243.524 236.000,244.176 234.895,243.600 234.200 C 242.974 233.446,242.627 233.445,242.004 234.195 M243.400 234.828 C 243.400 235.137,243.085 235.450,242.700 235.524 C 242.011 235.657,241.725 234.808,242.275 234.258 C 242.694 233.839,243.400 234.196,243.400 234.828 M237.606 239.433 C 237.609 239.855,237.795 240.470,238.018 240.800 C 238.315 241.238,238.352 241.076,238.156 240.200 C 237.827 238.729,237.598 238.410,237.606 239.433 M239.022 239.700 C 239.391 240.305,239.952 240.800,240.270 240.800 C 240.587 240.800,240.736 240.980,240.600 241.200 C 240.464 241.420,240.543 241.600,240.776 241.600 C 241.009 241.600,241.200 241.330,241.200 241.000 C 241.200 240.670,240.914 240.400,240.564 240.400 C 240.214 240.400,239.574 239.995,239.140 239.500 L 238.353 238.600 239.022 239.700 M195.801 240.796 C 195.328 242.288,196.604 243.000,197.600 241.800 C 197.997 241.321,197.997 241.079,197.600 240.600 C 196.906 239.764,196.101 239.852,195.801 240.796 M197.422 240.835 C 197.834 241.502,196.907 242.267,196.355 241.715 C 195.893 241.253,196.182 240.400,196.800 240.400 C 196.994 240.400,197.274 240.596,197.422 240.835 M246.068 242.362 C 246.360 242.891,247.032 244.061,247.560 244.962 C 248.088 245.863,249.120 247.770,249.854 249.200 C 250.587 250.630,251.190 251.580,251.193 251.311 C 251.201 250.771,249.617 247.279,248.506 245.386 C 247.616 243.871,245.340 241.047,246.068 242.362 M108.200 243.198 C 107.320 243.355,108.670 243.394,111.200 243.286 C 113.730 243.177,115.875 243.024,115.967 242.944 C 116.257 242.693,109.869 242.901,108.200 243.198 M122.734 243.181 C 123.688 243.336,124.629 243.719,124.825 244.031 C 125.491 245.091,127.135 250.187,127.625 252.710 C 127.894 254.090,128.193 255.140,128.290 255.043 C 128.387 254.946,128.174 253.367,127.816 251.533 C 126.362 244.074,125.595 242.766,122.719 242.850 L 121.000 242.900 122.734 243.181 M100.022 245.065 C 97.850 246.012,86.965 248.782,83.000 249.397 L 79.400 249.956 82.600 249.740 C 87.167 249.433,105.804 244.350,102.000 244.450 C 101.670 244.458,100.780 244.735,100.022 245.065 M189.067 244.667 C 188.142 245.591,189.601 248.836,190.916 248.779 C 191.182 248.767,190.995 248.476,190.500 248.130 C 189.882 247.699,189.606 247.110,189.619 246.251 L 189.638 245.000 190.321 246.400 C 190.957 247.704,191.147 247.808,193.102 247.921 C 195.527 248.061,195.902 248.680,193.700 248.911 L 192.200 249.068 193.797 249.034 C 196.482 248.977,196.293 247.600,193.600 247.600 C 191.577 247.600,191.529 247.572,190.870 246.004 C 190.235 244.492,189.665 244.069,189.067 244.667 M161.097 251.499 C 161.013 251.665,161.046 253.420,161.170 255.400 L 161.394 259.000 161.597 255.602 L 161.800 252.204 164.306 254.511 C 168.098 258.001,178.854 263.679,179.828 262.705 C 179.956 262.577,179.642 262.347,179.130 262.193 C 173.894 260.614,167.389 256.910,164.400 253.807 C 162.471 251.804,161.341 251.015,161.097 251.499 M251.880 256.276 C 252.229 260.864,251.660 261.730,247.016 263.678 C 244.743 264.631,245.924 264.567,248.519 263.596 C 252.316 262.175,253.163 260.435,252.216 256.000 L 251.661 253.400 251.880 256.276 M128.400 255.844 C 128.400 260.085,132.695 271.342,135.809 275.263 C 143.223 284.598,157.955 282.675,160.972 271.978 C 161.124 271.440,160.689 271.990,160.005 273.200 C 156.770 278.924,149.793 282.242,144.362 280.640 C 137.461 278.603,132.946 272.535,130.198 261.604 C 128.869 256.315,128.400 254.813,128.400 255.844 M161.770 263.800 C 161.787 266.220,161.663 268.740,161.495 269.400 C 161.230 270.439,161.253 270.494,161.666 269.808 C 162.283 268.783,162.543 263.517,162.091 261.200 C 161.807 259.740,161.746 260.232,161.770 263.800 M226.000 261.342 C 225.230 261.621,223.790 262.374,222.800 263.016 C 221.810 263.658,220.370 264.487,219.600 264.859 C 218.830 265.231,218.470 265.549,218.800 265.567 C 219.130 265.584,220.470 264.953,221.777 264.164 C 223.085 263.376,225.106 262.375,226.269 261.940 L 228.382 261.149 230.195 262.397 C 233.672 264.789,236.941 265.455,242.200 264.841 C 244.894 264.526,244.817 264.511,240.160 264.457 C 234.795 264.394,233.524 264.085,230.605 262.134 C 228.408 260.665,228.044 260.602,226.000 261.342 M181.377 263.679 C 182.622 264.654,187.387 266.750,188.400 266.770 C 188.730 266.776,187.991 266.366,186.757 265.858 C 185.523 265.351,183.993 264.569,183.357 264.120 C 181.539 262.839,179.812 262.455,181.377 263.679 M216.600 265.804 C 216.380 265.882,214.883 266.156,213.274 266.413 C 211.665 266.670,210.429 266.962,210.529 267.062 C 210.744 267.277,217.620 266.114,217.923 265.810 C 218.152 265.581,217.244 265.577,216.600 265.804 M191.512 267.586 C 192.014 267.804,193.904 268.068,195.712 268.172 C 198.480 268.331,198.652 268.309,196.800 268.032 C 191.716 267.272,190.571 267.175,191.512 267.586 M207.500 267.482 C 207.995 267.578,208.805 267.578,209.300 267.482 C 209.795 267.387,209.390 267.309,208.400 267.309 C 207.410 267.309,207.005 267.387,207.500 267.482 M201.500 267.893 C 202.435 267.977,203.965 267.977,204.900 267.893 C 205.835 267.809,205.070 267.740,203.200 267.740 C 201.330 267.740,200.565 267.809,201.500 267.893 " stroke="none" fill="#9ca29b" fill-rule="evenodd"></path><path id="path4" d="M150.600 164.400 C 150.096 164.617,150.022 164.744,150.400 164.744 C 150.730 164.744,151.360 164.589,151.800 164.400 C 152.304 164.183,152.378 164.056,152.000 164.056 C 151.670 164.056,151.040 164.211,150.600 164.400 M155.500 164.682 C 155.995 164.778,156.805 164.778,157.300 164.682 C 157.795 164.587,157.390 164.509,156.400 164.509 C 155.410 164.509,155.005 164.587,155.500 164.682 M161.100 164.696 C 162.475 164.774,164.725 164.774,166.100 164.696 C 167.475 164.618,166.350 164.554,163.600 164.554 C 160.850 164.554,159.725 164.618,161.100 164.696 M144.696 166.678 C 142.329 167.694,140.460 168.593,140.544 168.677 C 140.686 168.819,149.200 165.311,149.567 164.960 C 150.053 164.494,148.562 165.020,144.696 166.678 M177.600 167.200 C 178.370 167.622,179.180 167.966,179.400 167.966 C 179.620 167.966,179.170 167.622,178.400 167.200 C 177.630 166.778,176.820 166.434,176.600 166.434 C 176.380 166.434,176.830 166.778,177.600 167.200 M181.000 168.400 C 181.660 168.568,182.560 168.714,183.000 168.725 L 183.800 168.744 183.000 168.400 C 182.560 168.211,181.660 168.065,181.000 168.075 L 179.800 168.095 181.000 168.400 M137.600 169.400 C 136.830 169.697,136.470 169.939,136.800 169.939 C 137.130 169.939,138.030 169.697,138.800 169.400 C 139.570 169.103,139.930 168.861,139.600 168.861 C 139.270 168.861,138.370 169.103,137.600 169.400 M186.417 169.726 C 187.857 170.258,189.612 170.993,190.317 171.357 C 191.023 171.722,191.600 171.916,191.600 171.789 C 191.600 171.389,186.666 169.230,185.200 168.989 C 184.304 168.841,184.743 169.107,186.417 169.726 M131.376 171.030 C 130.949 171.376,130.839 171.537,131.131 171.387 C 131.424 171.237,132.144 170.969,132.731 170.791 C 133.589 170.533,133.637 170.462,132.976 170.434 C 132.524 170.415,131.804 170.683,131.376 171.030 M128.494 173.054 C 127.672 173.854,127.358 174.259,127.795 173.954 C 129.059 173.074,130.621 171.600,130.290 171.600 C 130.124 171.600,129.316 172.254,128.494 173.054 M125.200 175.248 C 124.430 175.713,122.630 177.041,121.200 178.200 C 119.770 179.359,117.261 181.311,115.623 182.538 C 109.551 187.087,106.179 191.226,104.983 195.600 C 104.508 197.339,105.445 195.946,106.118 193.915 C 107.571 189.523,110.543 186.603,123.248 177.084 C 124.484 176.158,125.834 175.186,126.248 174.924 C 127.569 174.087,126.655 174.370,125.200 175.248 M198.770 176.511 C 200.351 178.569,202.732 179.603,205.720 179.527 L 208.600 179.453 205.600 179.227 C 202.619 179.001,201.515 178.552,199.212 176.626 C 198.480 176.014,198.365 175.984,198.770 176.511 M220.400 183.800 C 220.950 184.114,221.580 184.372,221.800 184.372 C 222.020 184.372,221.750 184.114,221.200 183.800 C 220.650 183.486,220.020 183.228,219.800 183.228 C 219.580 183.228,219.850 183.486,220.400 183.800 M231.592 189.074 C 232.358 189.693,233.593 190.830,234.336 191.600 C 235.683 192.994,235.685 192.995,234.791 191.729 C 234.297 191.031,233.062 189.894,232.047 189.204 C 230.452 188.120,230.390 188.102,231.592 189.074 M236.308 194.123 C 237.442 195.633,242.237 200.745,241.770 199.947 C 241.566 199.599,240.064 197.894,238.432 196.157 C 236.799 194.421,235.843 193.505,236.308 194.123 M87.229 202.254 C 86.773 202.834,86.411 203.599,86.425 203.954 C 86.444 204.430,86.538 204.386,86.781 203.786 C 87.718 201.473,91.309 201.257,91.525 203.500 C 91.694 205.251,92.400 205.162,92.400 203.390 C 92.400 201.057,88.794 200.265,87.229 202.254 M102.254 203.957 C 101.692 205.522,100.463 214.688,100.412 217.700 C 100.383 219.422,97.130 215.339,93.481 209.000 C 92.848 207.900,92.445 207.360,92.586 207.800 C 93.426 210.418,99.941 219.778,100.521 219.200 C 100.632 219.090,101.004 216.003,101.348 212.340 C 101.708 208.512,102.256 204.976,102.637 204.023 C 103.002 203.112,103.222 202.288,103.126 202.192 C 103.030 202.097,102.638 202.891,102.254 203.957 M86.109 208.400 C 86.109 209.390,86.187 209.795,86.282 209.300 C 86.378 208.805,86.378 207.995,86.282 207.500 C 86.187 207.005,86.109 207.410,86.109 208.400 M86.027 213.640 C 85.996 214.377,86.824 216.909,87.029 216.704 C 87.104 216.629,86.915 215.765,86.609 214.784 C 86.304 213.803,86.041 213.288,86.027 213.640 M87.802 219.200 C 88.170 220.422,89.947 224.000,90.186 224.000 C 90.361 224.000,88.024 218.767,87.685 218.400 C 87.584 218.290,87.636 218.650,87.802 219.200 M246.064 220.250 C 246.029 220.938,245.911 222.107,245.801 222.850 L 245.603 224.200 246.024 222.858 C 246.255 222.120,246.373 220.950,246.286 220.258 L 246.128 219.000 246.064 220.250 M91.508 225.700 C 93.041 227.514,92.866 228.227,90.639 229.238 C 89.090 229.942,89.062 229.983,90.138 229.991 C 93.347 230.016,94.116 227.806,91.685 225.545 L 90.240 224.200 91.508 225.700 M81.600 230.897 C 80.610 231.124,79.980 231.370,80.200 231.444 C 80.420 231.518,81.590 231.333,82.800 231.034 C 85.346 230.403,84.288 230.283,81.600 230.897 M75.513 232.162 C 72.967 232.847,69.374 235.296,68.567 236.896 C 67.946 238.126,67.991 238.105,69.361 236.528 C 71.310 234.285,72.955 233.332,76.460 232.414 C 78.077 231.991,78.950 231.646,78.400 231.649 C 77.850 231.652,76.551 231.883,75.513 232.162 M196.200 240.800 C 195.881 241.316,196.310 242.009,196.924 241.968 C 197.267 241.946,197.261 241.881,196.900 241.735 C 196.625 241.624,196.400 241.349,196.400 241.124 C 196.400 240.899,196.679 240.822,197.021 240.953 C 197.377 241.089,197.537 241.022,197.397 240.795 C 197.083 240.287,196.516 240.289,196.200 240.800 M239.400 241.200 L 238.200 241.505 239.276 241.553 C 239.868 241.579,240.464 241.420,240.600 241.200 C 240.736 240.980,240.792 240.821,240.724 240.847 C 240.656 240.873,240.060 241.032,239.400 241.200 M117.091 243.089 C 117.801 243.177,119.061 243.179,119.891 243.092 C 120.721 243.005,120.140 242.933,118.600 242.931 C 117.060 242.929,116.381 243.000,117.091 243.089 M67.606 243.672 C 67.589 245.565,72.599 251.135,73.504 250.229 C 73.630 250.103,73.537 250.000,73.297 250.000 C 72.512 250.000,70.383 247.933,69.482 246.295 C 67.724 243.100,67.612 242.943,67.606 243.672 M111.111 243.493 C 112.051 243.578,113.491 243.577,114.311 243.491 C 115.130 243.405,114.360 243.336,112.600 243.337 C 110.840 243.339,110.170 243.409,111.111 243.493 M122.759 243.553 C 124.261 243.826,124.362 243.962,125.604 247.400 C 126.970 251.178,127.141 251.535,127.173 250.687 C 127.219 249.478,124.807 243.688,124.153 243.437 C 123.813 243.307,123.054 243.224,122.467 243.253 C 121.546 243.298,121.586 243.339,122.759 243.553 M101.400 244.986 C 99.855 245.693,100.574 245.703,102.400 245.000 C 103.170 244.703,103.530 244.455,103.200 244.448 C 102.870 244.442,102.060 244.683,101.400 244.986 M189.619 246.254 C 189.594 247.883,190.951 248.800,193.386 248.800 C 195.906 248.800,195.670 248.069,193.102 247.921 C 191.147 247.808,190.957 247.704,190.321 246.400 L 189.638 245.000 189.619 246.254 M249.991 248.200 C 250.545 249.374,251.059 250.274,251.133 250.201 C 251.334 250.000,249.745 246.537,249.337 246.284 C 249.142 246.164,249.436 247.026,249.991 248.200 M93.200 247.626 C 91.018 248.254,90.886 248.336,92.380 248.138 C 94.181 247.900,97.508 246.847,96.400 246.867 C 96.070 246.873,94.630 247.214,93.200 247.626 M87.800 249.011 C 86.920 249.301,86.560 249.539,87.000 249.539 C 87.440 249.539,88.430 249.297,89.200 249.000 C 90.995 248.309,89.905 248.317,87.800 249.011 M83.066 250.026 C 83.355 250.315,83.923 250.327,84.846 250.062 L 86.200 249.672 84.420 249.636 C 83.162 249.611,82.765 249.725,83.066 250.026 M79.305 250.287 C 79.914 250.379,80.814 250.377,81.305 250.282 C 81.797 250.187,81.300 250.111,80.200 250.114 C 79.100 250.117,78.697 250.195,79.305 250.287 M74.905 250.687 C 75.514 250.779,76.414 250.777,76.905 250.682 C 77.397 250.587,76.900 250.511,75.800 250.514 C 74.700 250.517,74.297 250.595,74.905 250.687 M251.426 251.800 C 253.284 260.906,253.057 261.841,248.555 263.599 C 246.429 264.429,246.560 264.629,248.821 264.001 C 253.007 262.838,254.196 257.422,251.570 251.480 C 251.244 250.740,251.221 250.791,251.426 251.800 M161.675 256.100 L 161.749 259.800 161.975 256.422 L 162.200 253.043 164.791 255.358 C 167.550 257.823,171.885 260.577,173.700 261.019 C 175.433 261.441,174.986 260.979,172.900 260.192 C 170.258 259.195,167.239 257.210,164.410 254.609 C 161.396 251.838,161.587 251.734,161.675 256.100 M128.068 255.800 C 128.062 256.240,128.211 256.960,128.400 257.400 C 128.838 258.419,128.838 257.368,128.400 256.000 C 128.143 255.196,128.077 255.157,128.068 255.800 M128.800 258.954 C 128.800 259.695,130.097 264.836,130.246 264.687 C 130.428 264.506,129.251 259.118,128.968 258.835 C 128.876 258.742,128.800 258.796,128.800 258.954 M229.000 262.186 C 231.920 263.961,233.562 264.800,234.084 264.784 C 234.368 264.776,234.015 264.514,233.300 264.204 C 232.586 263.893,231.203 263.090,230.228 262.419 C 229.253 261.749,228.218 261.203,227.928 261.207 C 227.638 261.210,228.120 261.651,229.000 262.186 M225.573 262.182 C 224.022 262.753,219.977 265.180,220.556 265.192 C 220.751 265.197,221.782 264.665,222.845 264.010 C 223.908 263.356,225.235 262.706,225.793 262.566 C 226.351 262.426,226.906 262.151,227.027 261.956 C 227.288 261.534,227.365 261.522,225.573 262.182 M162.528 265.200 C 162.528 266.630,162.601 267.215,162.689 266.500 C 162.778 265.785,162.778 264.615,162.689 263.900 C 162.601 263.185,162.528 263.770,162.528 265.200 M179.900 263.288 C 180.395 263.527,180.800 263.855,180.800 264.018 C 180.800 264.377,184.026 265.707,184.280 265.453 C 184.379 265.354,184.042 265.141,183.530 264.979 C 183.019 264.817,182.043 264.261,181.362 263.742 C 180.681 263.224,179.871 262.812,179.562 262.827 C 179.253 262.842,179.405 263.049,179.900 263.288 M236.200 265.223 C 238.226 265.642,239.863 265.623,238.200 265.200 C 237.540 265.032,236.460 264.894,235.800 264.893 C 234.791 264.892,234.855 264.945,236.200 265.223 M241.300 265.087 C 241.905 265.178,242.895 265.178,243.500 265.087 C 244.105 264.995,243.610 264.920,242.400 264.920 C 241.190 264.920,240.695 264.995,241.300 265.087 M130.572 266.200 C 130.729 266.860,131.029 267.576,131.239 267.791 C 131.450 268.006,131.410 267.556,131.151 266.791 C 130.546 265.000,130.205 264.652,130.572 266.200 M217.400 266.000 C 216.896 266.217,216.822 266.344,217.200 266.344 C 217.530 266.344,218.160 266.189,218.600 266.000 C 219.104 265.783,219.178 265.656,218.800 265.656 C 218.470 265.656,217.840 265.811,217.400 266.000 M190.200 267.600 C 190.640 267.789,191.270 267.944,191.600 267.944 C 191.978 267.944,191.904 267.817,191.400 267.600 C 190.960 267.411,190.330 267.256,190.000 267.256 C 189.622 267.256,189.696 267.383,190.200 267.600 M208.200 267.600 L 206.200 267.874 208.000 267.897 C 208.990 267.910,210.250 267.776,210.800 267.600 C 212.044 267.201,211.106 267.201,208.200 267.600 M192.900 268.276 C 193.285 268.376,193.915 268.376,194.300 268.276 C 194.685 268.175,194.370 268.093,193.600 268.093 C 192.830 268.093,192.515 268.175,192.900 268.276 M199.505 268.283 C 200.002 268.379,200.722 268.375,201.105 268.275 C 201.487 268.175,201.080 268.096,200.200 268.101 C 199.320 268.105,199.007 268.187,199.505 268.283 M196.100 268.676 C 196.485 268.776,197.115 268.776,197.500 268.676 C 197.885 268.575,197.570 268.493,196.800 268.493 C 196.030 268.493,195.715 268.575,196.100 268.676 M132.002 269.866 C 131.993 271.922,138.417 279.122,141.463 280.469 C 143.986 281.585,144.011 281.184,141.493 279.988 C 138.848 278.733,135.734 275.616,133.644 272.134 C 132.742 270.630,132.003 269.610,132.002 269.866 M157.386 277.382 C 155.884 278.944,154.765 279.687,152.986 280.306 C 151.674 280.763,150.900 281.151,151.267 281.168 C 153.162 281.258,158.133 277.993,159.235 275.934 C 159.777 274.922,159.674 275.003,157.386 277.382 M144.715 281.672 C 145.092 281.821,146.120 281.944,147.000 281.944 C 147.880 281.944,148.908 281.821,149.285 281.672 C 149.662 281.522,148.634 281.400,147.000 281.400 C 145.366 281.400,144.338 281.522,144.715 281.672 " stroke="none" fill="#c9cdc9" fill-rule="evenodd"></path></g></svg>